<svg width="30" height="30" viewBox="0 0 30 30" fill="none" xmlns="http://www.w3.org/2000/svg">
<path d="M15 19.9996C14.7079 20.0002 14.4249 19.8985 14.2 19.7121L6.69998 13.4621C6.44471 13.2499 6.28418 12.945 6.2537 12.6145C6.22323 12.284 6.32531 11.9549 6.53748 11.6996C6.74965 11.4443 7.05454 11.2838 7.38507 11.2533C7.71561 11.2229 8.04471 11.3249 8.29998 11.5371L15 17.1371L21.7 11.7371C21.8278 11.6333 21.975 11.5557 22.1329 11.509C22.2908 11.4622 22.4564 11.447 22.6202 11.4645C22.784 11.4819 22.9427 11.5315 23.0873 11.6105C23.2318 11.6894 23.3593 11.7962 23.4625 11.9246C23.577 12.0531 23.6637 12.2039 23.7171 12.3675C23.7706 12.5311 23.7898 12.704 23.7733 12.8753C23.7569 13.0466 23.7053 13.2127 23.6217 13.3632C23.5381 13.5136 23.4243 13.6452 23.2875 13.7496L15.7875 19.7871C15.5561 19.944 15.2789 20.0188 15 19.9996Z" fill="black"/>
</svg>
