<svg width="65" height="373" viewBox="0 0 65 373" fill="none" xmlns="http://www.w3.org/2000/svg">
<rect x="31" y="64" width="2" height="92" fill="#113C80" fill-opacity="0.6"/>
<rect x="31" y="218" width="2" height="92" fill="#113C80" fill-opacity="0.6"/>
<circle cx="32.5" cy="32.5" r="31.5" stroke="#113C80" stroke-width="2"/>
<path d="M27.3743 44V41.76H32.5263V24.608L28.4623 27.168L27.3423 25.216L33.2623 21.44H35.1503V41.76H39.9823V44H27.3743Z" fill="#113C80"/>
<circle cx="32.5" cy="186.5" r="31.5" stroke="#113C80" stroke-width="2"/>
<path d="M26.2863 198V196.016L33.9983 187.696C35.0863 186.501 35.8649 185.413 36.3343 184.432C36.8249 183.451 37.0703 182.448 37.0703 181.424C37.0703 178.8 35.5449 177.488 32.4943 177.488C30.2116 177.488 28.1956 178.341 26.4463 180.048L25.4543 178C26.2863 177.147 27.3423 176.464 28.6223 175.952C29.9236 175.419 31.2889 175.152 32.7183 175.152C34.9796 175.152 36.7076 175.685 37.9023 176.752C39.1183 177.797 39.7263 179.291 39.7263 181.232C39.7263 182.576 39.3956 183.899 38.7343 185.2C38.0729 186.48 37.0596 187.845 35.6943 189.296L29.6463 195.76H40.6543V198H26.2863Z" fill="#113C80"/>
<circle cx="32.5" cy="340.5" r="31.5" stroke="#113C80" stroke-width="2"/>
<path d="M32.7503 352.288C31.2569 352.288 29.8383 352.064 28.4943 351.616C27.1503 351.147 26.0196 350.475 25.1023 349.6L26.0623 347.52C27.1076 348.373 28.1636 348.992 29.2303 349.376C30.2969 349.76 31.4489 349.952 32.6863 349.952C34.3076 349.952 35.5449 349.6 36.3983 348.896C37.2729 348.171 37.7103 347.115 37.7103 345.728C37.7103 344.405 37.2729 343.403 36.3983 342.72C35.5236 342.037 34.2543 341.696 32.5903 341.696H29.2623V339.424H32.3663C33.8169 339.424 34.9583 339.051 35.7903 338.304C36.6436 337.536 37.0703 336.491 37.0703 335.168C37.0703 333.995 36.6756 333.088 35.8863 332.448C35.1183 331.808 34.0196 331.488 32.5903 331.488C30.2436 331.488 28.1956 332.341 26.4463 334.048L25.4863 332C26.3183 331.104 27.3743 330.411 28.6543 329.92C29.9556 329.408 31.3209 329.152 32.7503 329.152C34.9263 329.152 36.6223 329.664 37.8383 330.688C39.0756 331.712 39.6943 333.131 39.6943 334.944C39.6943 336.203 39.3743 337.312 38.7343 338.272C38.0943 339.211 37.2089 339.893 36.0783 340.32C37.4223 340.683 38.4676 341.355 39.2143 342.336C39.9609 343.296 40.3343 344.491 40.3343 345.92C40.3343 347.861 39.6516 349.408 38.2863 350.56C36.9423 351.712 35.0969 352.288 32.7503 352.288Z" fill="#113C80"/>
</svg>
