<svg width="48" height="52" viewBox="0 0 48 52" fill="none" xmlns="http://www.w3.org/2000/svg">
<circle cx="30.5" cy="16.5" r="16.5" fill="#9500AD" fill-opacity="0.55"/>
<path d="M7.88465 46.9999C7.10035 46.9999 6.4235 46.7152 5.8541 46.1458C5.2847 45.5764 5 44.8996 5 44.1153V21.8847C5 21.1004 5.2847 20.4235 5.8541 19.8541C6.4235 19.2847 7.10035 19 7.88465 19H20.0962V11.2692C20.0962 10.6644 20.3233 10.135 20.7777 9.681C21.232 9.227 21.7687 9 22.3877 9H25.6176C26.2366 9 26.7724 9.227 27.2249 9.681C27.6775 10.135 27.9038 10.6644 27.9038 11.2692V19H40.1153C40.8996 19 41.5764 19.2847 42.1458 19.8541C42.7152 20.4235 42.9999 21.1004 42.9999 21.8847V44.1153C42.9999 44.8996 42.7152 45.5764 42.1458 46.1458C41.5764 46.7152 40.8996 46.9999 40.1153 46.9999H7.88465ZM7.88465 44.7307H40.1153C40.2948 44.7307 40.4422 44.673 40.5576 44.5576C40.673 44.4422 40.7307 44.2948 40.7307 44.1153V21.8847C40.7307 21.7052 40.673 21.5577 40.5576 21.4423C40.4422 21.3269 40.2948 21.2692 40.1153 21.2692H27.9038V23.1346C27.9038 23.8372 27.6775 24.391 27.2249 24.7961C26.7724 25.2012 26.2354 25.4038 25.6141 25.4038H22.3859C21.7645 25.4038 21.2275 25.2012 20.775 24.7961C20.3224 24.391 20.0962 23.8372 20.0962 23.1346V21.2692H7.88465C7.70515 21.2692 7.5577 21.3269 7.4423 21.4423C7.3269 21.5577 7.2692 21.7052 7.2692 21.8847V44.1153C7.2692 44.2948 7.3269 44.4422 7.4423 44.5576C7.5577 44.673 7.70515 44.7307 7.88465 44.7307ZM12.0231 39.1691H23.3577V38.7191C23.3577 38.1832 23.2237 37.7044 22.9557 37.2827C22.6878 36.8609 22.3397 36.5666 21.9115 36.4C20.9602 36.0589 20.1782 35.8301 19.5654 35.7134C18.9525 35.5967 18.3564 35.5384 17.7769 35.5384C17.1564 35.5384 16.4974 35.6102 15.8 35.7538C15.1025 35.8974 14.3423 36.1128 13.5192 36.4C13.0577 36.5666 12.6929 36.8609 12.425 37.2827C12.157 37.7044 12.0231 38.1832 12.0231 38.7191V39.1691ZM28.2846 35.8769H36.65V33.8577H28.2846V35.8769ZM17.786 33.8577C18.4651 33.8577 19.0449 33.6144 19.5254 33.1279C20.0059 32.6413 20.2461 32.0583 20.2461 31.3788C20.2461 30.6993 20.0059 30.1163 19.5254 29.6298C19.0449 29.1433 18.4651 28.9 17.786 28.9C17.1068 28.9 16.524 29.143 16.0375 29.629C15.5509 30.115 15.3077 30.7015 15.3077 31.3885C15.3077 32.0615 15.5509 32.6413 16.0375 33.1279C16.524 33.6144 17.1068 33.8577 17.786 33.8577ZM28.2846 30.7461H36.65V28.7269H28.2846V30.7461ZM22.3653 23.1346H25.6346V11.2692H22.3653V23.1346Z" fill="#4D4D4D"/>
</svg>
