<svg width="48" height="52" viewBox="0 0 48 52" fill="none" xmlns="http://www.w3.org/2000/svg">
<circle cx="30.5" cy="16.5" r="16.5" fill="#4D4D4D" fill-opacity="0.55"/>
<path d="M7.88465 44.9998C7.10035 44.9998 6.4235 44.7151 5.8541 44.1457C5.2847 43.5763 5 42.8995 5 42.1152V19.4076C5 18.6233 5.2847 17.9465 5.8541 17.3771C6.4235 16.8077 7.10035 16.523 7.88465 16.523H17.3654V12.8846C17.3654 12.1179 17.6501 11.4455 18.2195 10.8673C18.7889 10.2891 19.4657 10 20.25 10H27.7499C28.5342 10 29.211 10.2891 29.7804 10.8673C30.3498 11.4455 30.6345 12.1179 30.6345 12.8846V16.523H40.1153C40.8996 16.523 41.5764 16.8077 42.1458 17.3771C42.7152 17.9465 42.9999 18.6233 42.9999 19.4076V30.3268C42.6486 30.0627 42.289 29.8191 41.9211 29.5961C41.5531 29.373 41.1563 29.1601 40.7307 28.9576V19.4076C40.7307 19.2409 40.673 19.0967 40.5576 18.9749C40.4422 18.8531 40.2948 18.7922 40.1153 18.7922H7.88465C7.70515 18.7922 7.5577 18.8531 7.4423 18.9749C7.3269 19.0967 7.2692 19.2409 7.2692 19.4076V42.1152C7.2692 42.2947 7.3269 42.4472 7.4423 42.5729C7.5577 42.6985 7.70515 42.7511 7.88465 42.7306H24.2996C24.3922 43.1357 24.5096 43.5274 24.6519 43.9056C24.7942 44.2838 24.9602 44.6485 25.1499 44.9998H7.88465ZM19.6346 16.523H28.3653V12.8846C28.3653 12.7051 28.3076 12.5576 28.1923 12.4422C28.0769 12.3268 27.9294 12.2691 27.7499 12.2691H20.25C20.0705 12.2691 19.923 12.3268 19.8076 12.4422C19.6923 12.5576 19.6346 12.7051 19.6346 12.8846V16.523ZM36 48.746C33.5974 48.746 31.5391 47.8889 29.825 46.1748C28.1109 44.4607 27.2539 42.4024 27.2539 39.9999C27.2539 37.5973 28.1109 35.539 29.825 33.8249C31.5391 32.1108 33.5974 31.2538 36 31.2538C38.4025 31.2538 40.4608 32.1108 42.1749 33.8249C43.889 35.539 44.7461 37.5973 44.7461 39.9999C44.7461 42.4024 43.889 44.4607 42.1749 46.1748C40.4608 47.8889 38.4025 48.746 36 48.746ZM39.5846 44.7999L40.8 43.5845L36.773 39.8614V33.8922H34.9423V40.4236L39.5846 44.7999Z" fill="#4D4D4D"/>
</svg>
