<svg width="48" height="52" viewBox="0 0 48 52" fill="none" xmlns="http://www.w3.org/2000/svg">
<circle cx="28.5" cy="16.5" r="16.5" fill="#076ABE" fill-opacity="0.55"/>
<path d="M23.9999 33.1346C25.5721 33.1346 27.0017 32.7762 28.2887 32.0596C29.5757 31.3429 30.6294 30.3884 31.4499 29.1961C30.3679 28.4192 29.2015 27.8365 27.9507 27.448C26.7 27.0596 25.3795 26.8653 23.9892 26.8653C22.5989 26.8653 21.282 27.0596 20.0384 27.448C18.7948 27.8365 17.632 28.4192 16.55 29.1961C17.3705 30.3884 18.4242 31.3429 19.7112 32.0596C20.9982 32.7762 22.4277 33.1346 23.9999 33.1346ZM24.0044 23.1345C24.8783 23.1345 25.6185 22.8267 26.2249 22.2109C26.8313 21.5951 27.1346 20.8567 27.1346 19.9955C27.1346 19.1216 26.8299 18.3814 26.2205 17.7749C25.6111 17.1685 24.8695 16.8654 23.9955 16.8654C23.1344 16.8654 22.3974 17.17 21.7846 17.7794C21.1718 18.3888 20.8654 19.1304 20.8654 20.0044C20.8654 20.8655 21.1732 21.6025 21.789 22.2153C22.4048 22.8281 23.1432 23.1345 24.0044 23.1345ZM23.9999 44.5885C28.382 40.6833 31.6826 36.9769 33.9019 33.4692C36.1211 29.9615 37.2307 26.9384 37.2307 24.3999C37.2307 20.4095 35.9566 17.1401 33.4084 14.5917C30.8603 12.0433 27.7241 10.7691 23.9999 10.7691C20.2758 10.7691 17.1396 12.0433 14.5914 14.5917C12.0432 17.1401 10.7691 20.4095 10.7691 24.3999C10.7691 26.9384 11.8974 29.9615 14.1538 33.4692C16.4102 36.9769 19.6922 40.6833 23.9999 44.5885ZM23.9999 47.6153C18.7871 43.0871 14.9006 38.8839 12.3403 35.0057C9.78012 31.1275 8.5 27.5922 8.5 24.3999C8.5 19.5538 10.0602 15.6923 13.1807 12.8154C16.3012 9.93845 19.9076 8.5 23.9999 8.5C28.0922 8.5 31.6986 9.93845 34.8191 12.8154C37.9396 15.6923 39.4999 19.5538 39.4999 24.3999C39.4999 27.5922 38.2198 31.1275 35.6596 35.0057C33.0993 38.8839 29.2127 43.0871 23.9999 47.6153Z" fill="#4D4D4D"/>
</svg>
