<svg width="36" height="36" viewBox="0 0 36 36" fill="none" xmlns="http://www.w3.org/2000/svg">
<g id="24 / symbols / instagram">
<path id="icon" fill-rule="evenodd" clip-rule="evenodd" d="M24 3H12C7.02944 3 3 7.02944 3 12V24C3 28.9706 7.02944 33 12 33H24C28.9706 33 33 28.9706 33 24V12C33 7.02944 28.9706 3 24 3ZM6 12C6 8.68629 8.68629 6 12 6H24C27.3137 6 30 8.68629 30 12V24C30 27.3137 27.3137 30 24 30H12C8.68629 30 6 27.3137 6 24V12ZM18 25.5C13.8579 25.5 10.5 22.1421 10.5 18C10.5 13.8579 13.8579 10.5 18 10.5C22.1421 10.5 25.5 13.8579 25.5 18C25.5 22.1421 22.1421 25.5 18 25.5ZM18 22.5C20.4853 22.5 22.5 20.4853 22.5 18C22.5 15.5147 20.4853 13.5 18 13.5C15.5147 13.5 13.5 15.5147 13.5 18C13.5 20.4853 15.5147 22.5 18 22.5ZM27 10.5C27 11.3284 26.3284 12 25.5 12C24.6716 12 24 11.3284 24 10.5C24 9.67157 24.6716 9 25.5 9C26.3284 9 27 9.67157 27 10.5Z" fill="#FFF4E7"/>
</g>
</svg>
