<svg width="36" height="36" viewBox="0 0 36 36" fill="none" xmlns="http://www.w3.org/2000/svg">
<g id="24 / symbols / linkedin">
<path id="icon" fill-rule="evenodd" clip-rule="evenodd" d="M6 3H30C31.6569 3 33 4.34315 33 6V30C33 31.6569 31.6569 33 30 33H6C4.34315 33 3 31.6569 3 30V6C3 4.34315 4.34315 3 6 3ZM6 6V30H30V6H6ZM19.5 13.5C18.7234 13.5 17.9029 13.7374 17.1782 14.1782L16.5 13.5H15V24H18V18C18 17.1364 18.8909 16.5 19.5 16.5H21C21.6091 16.5 22.5 17.1364 22.5 18V24H25.5V18C25.5 15.2208 23.0909 13.5 21 13.5H19.5ZM12 12C12.8284 12 13.5 11.3284 13.5 10.5C13.5 9.67157 12.8284 9 12 9C11.1716 9 10.5 9.67157 10.5 10.5C10.5 11.3284 11.1716 12 12 12ZM10.5 13.5V24H13.5V13.5H10.5Z" fill="#FFF4E7"/>
</g>
</svg>
