<svg width="36" height="36" viewBox="0 0 36 36" fill="none" xmlns="http://www.w3.org/2000/svg">
<g id="24 / symbols / twitter">
<path id="icon" fill-rule="evenodd" clip-rule="evenodd" d="M31.6793 6.76241L33.8014 7.01024L32.8475 8.922C32.3823 9.85429 31.9167 10.7866 31.4506 11.7189C31.3953 11.9163 31.2982 12.0894 31.1545 12.3148C31.0945 12.409 30.8894 12.7085 30.8798 12.7229C30.8256 12.8041 30.7856 12.8682 30.7568 12.9195V16.5023C30.7568 25.6703 21.8843 31.4961 13.5053 31.4961C11.7908 31.4961 10.4881 31.414 8.99647 31.0885C6.54172 30.5528 4.71491 29.488 3.87896 27.627L3.01832 25.711L5.10988 25.5187C7.00201 25.3446 8.64253 24.9842 9.90238 24.5015C6.44365 23.9453 4.5054 22.4262 4.5054 19.5733V18.0733H6.0054C6.33497 18.0733 6.63214 18.0466 6.89782 17.9975C4.302 16.4455 3.00183 13.9557 3.00183 10.5023C3.00155 10.3551 3.00155 10.3551 3.00066 10.1977C2.99091 8.45704 3.08441 7.52695 3.56092 6.33989C3.86631 5.57911 4.30775 4.87483 4.90185 4.2295L6.03376 3L7.13426 4.2577C10.7609 8.40241 14.3459 10.9169 18.0063 11.2211C18.0219 7.39657 20.9123 4.50228 24.7565 4.50228C26.5486 4.50228 28.1742 5.18252 29.4517 6.40909C30.1509 6.55276 30.8935 6.67064 31.6793 6.76241ZM28.363 9.24302L27.9031 9.1389L27.5855 8.79041C26.8177 7.94782 25.8539 7.50228 24.7565 7.50228C22.562 7.50228 21.0062 9.06586 21.0062 11.2523C21.0062 11.6096 20.997 11.8341 20.9524 12.1292C20.7748 13.3067 20.1143 14.2523 18.7562 14.2523C14.2591 14.2523 10.202 11.8431 6.24584 7.72842C6.04189 8.34841 5.99392 8.98571 6.00062 10.1809C6.00152 10.3408 6.00152 10.3408 6.00183 10.5023C6.00183 13.5743 7.2464 15.2547 10.1932 16.1913L11.2388 16.5236V17.6208C11.2388 18.9513 9.97833 20.2037 8.13403 20.7647C8.97947 21.4061 10.7085 21.7523 13.5058 21.7523H15.0058V23.2523C15.0058 25.4014 12.5364 27.0841 8.80612 27.9628C10.0227 28.3355 11.6425 28.4961 13.5053 28.4961C20.4269 28.4961 27.7568 23.6832 27.7568 16.5023V12.7523C27.7568 12.3116 27.8845 11.9291 28.0967 11.5314C28.1797 11.3759 28.2711 11.2276 28.3838 11.0586C28.405 11.0267 28.4838 10.9114 28.5463 10.8192L28.6652 10.5814C28.8578 10.1962 29.0504 9.81091 29.2429 9.42565C28.9437 9.36899 28.6504 9.30812 28.363 9.24302Z" fill="#FFF4E7"/>
</g>
</svg>
