<svg width="58" height="55" viewBox="0 0 58 55" fill="none" xmlns="http://www.w3.org/2000/svg">
<circle cx="41.5" cy="16.5" r="16.5" fill="#076ABE" fill-opacity="0.55"/>
<path d="M8.30713 44.6875C7.58143 44.6875 6.97032 44.4392 6.4738 43.9427C5.97727 43.4462 5.729 42.8351 5.729 42.1094V34.1458C7.1422 33.6493 8.29758 32.809 9.19515 31.625C10.0927 30.441 10.5415 29.066 10.5415 27.5C10.5415 25.934 10.0927 24.5495 9.19515 23.3464C8.29758 22.1432 7.1422 21.3125 5.729 20.8542V12.8906C5.729 12.1649 5.97727 11.5538 6.4738 11.0573C6.97032 10.5608 7.58143 10.3125 8.30713 10.3125H46.6925C47.4182 10.3125 48.0294 10.5608 48.5259 11.0573C49.0224 11.5538 49.2707 12.1649 49.2707 12.8906V42.1094C49.2707 42.8351 49.0224 43.4462 48.5259 43.9427C48.0294 44.4392 47.4182 44.6875 46.6925 44.6875H8.30713ZM8.30713 42.1094H46.6925V12.8906H8.30713V19.0208C9.79671 19.9757 10.9807 21.1884 11.8592 22.6589C12.7377 24.1293 13.1769 25.7431 13.1769 27.5C13.1769 29.2569 12.7377 30.8707 11.8592 32.3411C10.9807 33.8116 9.79671 35.0243 8.30713 35.9792V42.1094ZM20.1092 35.9792L40.7915 30.3646C41.4026 30.1736 41.861 29.8872 42.1665 29.5052C42.4721 29.1233 42.5294 28.6267 42.3384 28.0156C42.1856 27.4427 41.8705 27.0512 41.3931 26.8411C40.9156 26.6311 40.4096 26.5833 39.8748 26.6979L33.9738 28.3021L24.5207 19.1927L21.8853 19.7656L27.6717 29.9635L21.1978 31.6823L18.2186 29.3333L16.8436 29.7917L20.1092 35.9792Z" fill="#4D4D4D"/>
</svg>
