<svg width="36" height="36" viewBox="0 0 36 36" fill="none" xmlns="http://www.w3.org/2000/svg">
<g id="24 / symbols / youtube">
<path id="icon" fill-rule="evenodd" clip-rule="evenodd" d="M33.0371 27.1923C34.0621 25.4357 34.5 22.6033 34.5 17.9958C34.5 13.4067 34.0662 10.5907 33.0303 8.78704C31.9922 6.91404 30.761 6.31955 28.3174 6.17685C26.6493 6.06378 22.5034 6 18.004 6C13.4949 6 9.34717 6.06376 7.66651 6.17774C5.23667 6.31989 4.00516 6.9157 2.9579 8.7939C1.93708 10.5914 1.5 13.4211 1.5 18.0126C1.5 22.5781 1.93919 25.422 2.96687 27.2136C4.00052 29.0676 5.2124 29.6562 7.66291 29.8283C9.42414 29.9314 13.8066 30 18.004 30C22.192 30 26.5723 29.9314 28.3174 29.8294C30.7905 29.6562 32.0022 29.0666 33.0371 27.1923ZM28.1286 9.17087C29.6571 9.26019 29.9405 9.39758 30.425 10.2745C31.1303 11.496 31.5 13.8866 31.5 18.0126C31.5 22.1074 31.1284 24.5111 30.4283 25.7115C29.9421 26.5911 29.6606 26.7281 28.1251 26.8357C26.4734 26.932 22.1355 27 18.004 27C13.8632 27 9.52311 26.932 7.85555 26.8346C6.33901 26.7279 6.05348 26.5893 5.5781 25.7367C4.87329 24.5078 4.5 22.0906 4.5 17.9958C4.5 13.9035 4.87131 11.4996 5.57234 10.2651C6.05512 9.39941 6.34266 9.26029 7.85564 9.17174C9.45762 9.06316 13.5664 9 18.004 9C22.4321 9 26.5389 9.06318 28.1286 9.17087ZM15 13.5L22.5 18L15 22.5V13.5Z" fill="#FFF4E7"/>
</g>
</svg>
